<?xml version="1.0" encoding="utf-8"?><svg xml:space="preserve" viewBox="0 0 100 100" y="0" x="0" xmlns="http://www.w3.org/2000/svg" id="圖層_1" version="1.1" width="128px" height="128px" xmlns:xlink="http://www.w3.org/1999/xlink" style="width:100%;height:100%;background-size:initial;background-repeat-y:initial;background-repeat-x:initial;background-position-y:initial;background-position-x:initial;background-origin:initial;background-color:initial;background-clip:initial;background-attachment:initial;animation-play-state:paused" ><g class="ldl-scale" style="transform-origin:50% 50%;transform:rotate(0deg) scale(0.8, 0.8);animation-play-state:paused" ><path fill="#333" d="M64.969 46.318a23.548 23.548 0 0 0-2.862-1.583l-.022-.01c-.482-.223-.972-.43-1.471-.621l-.056-.022c-.078-.03-.16-.052-.239-.081 5.633-3.472 9.4-9.678 9.4-16.781C69.719 16.329 60.891 7.5 50 7.5s-19.719 8.829-19.719 19.719c0 7.102 3.768 13.309 9.4 16.781-.079.029-.161.052-.239.081l-.056.022c-.499.191-.989.398-1.471.621l-.022.01c-.994.462-1.95.992-2.862 1.583-6.433 4.169-10.692 11.406-10.692 19.642v17.764a8.776 8.776 0 0 0 8.776 8.776h33.77a8.776 8.776 0 0 0 8.776-8.776V65.96c.001-8.236-4.259-15.473-10.692-19.642z" style="fill:rgb(237, 184, 112);animation-play-state:paused" ></path>
<path fill="#fff" d="M55.108 73.147l-3.023-17.636 2.466-5.616a1.425 1.425 0 0 0-1.35-1.882h-6.402c-.976 0-1.663.958-1.35 1.882l2.466 5.616-3.023 17.636a1.25 1.25 0 0 0 .408 1.087l3.866 3.457a1.25 1.25 0 0 0 1.668 0l3.866-3.457c.306-.273.458-.68.408-1.087z" style="fill:rgb(253, 244, 175);animation-play-state:paused" ></path>
<metadata xmlns:d="https://loading.io/stock/" style="animation-play-state:paused" ><d:name style="animation-play-state:paused" >salesman</d:name>


<d:tags style="animation-play-state:paused" >entrepreneur,lawyer,accountant,suit,tie,salesman,business</d:tags>


<d:license style="animation-play-state:paused" >by</d:license>


<d:slug style="animation-play-state:paused" >owx6io</d:slug></metadata></g><!-- generated by https://loading.io/ --></svg>