<?xml version="1.0" encoding="UTF-8" standalone="no"?>
<!DOCTYPE svg PUBLIC "-//W3C//DTD SVG 1.1//EN"
 "http://www.w3.org/Graphics/SVG/1.1/DTD/svg11.dtd">
<!-- Generated by graphviz version 2.40.1 (20161225.0304)
 -->
<!-- Title: dependencies Pages: 1 -->
<svg width="1006pt" height="284pt"
 viewBox="0.00 0.00 1006.00 284.00" xmlns="http://www.w3.org/2000/svg" xmlns:xlink="http://www.w3.org/1999/xlink">
<g id="graph0" class="graph" transform="scale(1 1) rotate(0) translate(4 280)">
<title>dependencies</title>
<polygon fill="#ffffff" stroke="transparent" points="-4,4 -4,-280 1002,-280 1002,4 -4,4"/>
<text text-anchor="start" x="478.0091" y="-42.4" font-family="sans-serif" font-weight="bold" font-size="14.00" fill="#000000">Legend</text>
<polygon fill="#ffffb3" stroke="transparent" points="265,-10 265,-30 285,-30 285,-10 265,-10"/>
<text text-anchor="start" x="288.629" y="-15.4" font-family="sans-serif" font-size="14.00" fill="#000000"> &#160;Declarations</text>
<polygon fill="#8dd3c7" stroke="transparent" points="378,-10 378,-30 398,-30 398,-10 378,-10"/>
<text text-anchor="start" x="401.7251" y="-15.4" font-family="sans-serif" font-size="14.00" fill="#000000"> &#160;Module</text>
<polygon fill="#80b1d3" stroke="transparent" points="464,-10 464,-30 484,-30 484,-10 464,-10"/>
<text text-anchor="start" x="487.7812" y="-15.4" font-family="sans-serif" font-size="14.00" fill="#000000"> &#160;Bootstrap</text>
<polygon fill="#fdb462" stroke="transparent" points="561,-10 561,-30 581,-30 581,-10 561,-10"/>
<text text-anchor="start" x="584.6732" y="-15.4" font-family="sans-serif" font-size="14.00" fill="#000000"> &#160;Providers</text>
<polygon fill="#fb8072" stroke="transparent" points="657,-10 657,-30 677,-30 677,-10 657,-10"/>
<text text-anchor="start" x="680.7258" y="-15.4" font-family="sans-serif" font-size="14.00" fill="#000000"> &#160;Exports</text>
<g id="clust1" class="cluster">
<title>cluster_AppModule</title>
<polygon fill="none" stroke="#000000" stroke-dasharray="1,5" points="8,-70 8,-268 990,-268 990,-70 8,-70"/>
</g>
<g id="clust2" class="cluster">
<title>cluster_AppModule_declarations</title>
<polygon fill="none" stroke="#000000" points="302,-78 302,-130 982,-130 982,-78 302,-78"/>
</g>
<g id="clust8" class="cluster">
<title>cluster_AppModule_imports</title>
<polygon fill="none" stroke="#000000" points="16,-78 16,-130 294,-130 294,-78 16,-78"/>
</g>
<g id="clust10" class="cluster">
<title>cluster_AppModule_bootstrap</title>
<polygon fill="none" stroke="#000000" points="451,-208 451,-260 575,-260 575,-208 451,-208"/>
</g>
<!-- AdminComponent -->
<g id="node1" class="node">
<title>AdminComponent</title>
<polygon fill="#ffffb3" stroke="#000000" points="974.2204,-122 853.7796,-122 853.7796,-86 974.2204,-86 974.2204,-122"/>
<text text-anchor="middle" x="914" y="-99.8" font-family="Times,serif" font-size="14.00" fill="#000000">AdminComponent</text>
</g>
<!-- AppModule -->
<g id="node6" class="node">
<title>AppModule</title>
<polygon fill="#8dd3c7" stroke="#000000" points="554.6571,-187 551.6571,-191 530.6571,-191 527.6571,-187 471.3429,-187 471.3429,-151 554.6571,-151 554.6571,-187"/>
<text text-anchor="middle" x="513" y="-164.8" font-family="Times,serif" font-size="14.00" fill="#000000">AppModule</text>
</g>
<!-- AdminComponent&#45;&gt;AppModule -->
<g id="edge1" class="edge">
<title>AdminComponent&#45;&gt;AppModule</title>
<path fill="none" stroke="#000000" d="M914,-122.2921C914,-144.2057 914,-178 914,-178 914,-178 564.7792,-178 564.7792,-178"/>
<polygon fill="#000000" stroke="#000000" points="564.7793,-174.5001 554.7792,-178 564.7792,-181.5001 564.7793,-174.5001"/>
</g>
<!-- AppComponent -->
<g id="node2" class="node">
<title>AppComponent</title>
<polygon fill="#ffffb3" stroke="#000000" points="835.9399,-122 730.0601,-122 730.0601,-86 835.9399,-86 835.9399,-122"/>
<text text-anchor="middle" x="783" y="-99.8" font-family="Times,serif" font-size="14.00" fill="#000000">AppComponent</text>
</g>
<!-- AppComponent&#45;&gt;AppModule -->
<g id="edge2" class="edge">
<title>AppComponent&#45;&gt;AppModule</title>
<path fill="none" stroke="#000000" d="M783,-122.1061C783,-141.3391 783,-169 783,-169 783,-169 564.8913,-169 564.8913,-169"/>
<polygon fill="#000000" stroke="#000000" points="564.8913,-165.5001 554.8913,-169 564.8912,-172.5001 564.8913,-165.5001"/>
</g>
<!-- HomeComponent -->
<g id="node3" class="node">
<title>HomeComponent</title>
<polygon fill="#ffffb3" stroke="#000000" points="712.5451,-122 597.4549,-122 597.4549,-86 712.5451,-86 712.5451,-122"/>
<text text-anchor="middle" x="655" y="-99.8" font-family="Times,serif" font-size="14.00" fill="#000000">HomeComponent</text>
</g>
<!-- HomeComponent&#45;&gt;AppModule -->
<g id="edge3" class="edge">
<title>HomeComponent&#45;&gt;AppModule</title>
<path fill="none" stroke="#000000" d="M655,-122.027C655,-138.3976 655,-160 655,-160 655,-160 564.8367,-160 564.8367,-160"/>
<polygon fill="#000000" stroke="#000000" points="564.8367,-156.5001 554.8367,-160 564.8366,-163.5001 564.8367,-156.5001"/>
</g>
<!-- LandlordComponent -->
<g id="node4" class="node">
<title>LandlordComponent</title>
<polygon fill="#ffffb3" stroke="#000000" points="579.1513,-122 446.8487,-122 446.8487,-86 579.1513,-86 579.1513,-122"/>
<text text-anchor="middle" x="513" y="-99.8" font-family="Times,serif" font-size="14.00" fill="#000000">LandlordComponent</text>
</g>
<!-- LandlordComponent&#45;&gt;AppModule -->
<g id="edge4" class="edge">
<title>LandlordComponent&#45;&gt;AppModule</title>
<path fill="none" stroke="#000000" d="M513,-122.1061C513,-122.1061 513,-140.991 513,-140.991"/>
<polygon fill="#000000" stroke="#000000" points="509.5001,-140.9909 513,-150.991 516.5001,-140.991 509.5001,-140.9909"/>
</g>
<!-- RenterComponent -->
<g id="node5" class="node">
<title>RenterComponent</title>
<polygon fill="#ffffb3" stroke="#000000" points="428.1499,-122 309.8501,-122 309.8501,-86 428.1499,-86 428.1499,-122"/>
<text text-anchor="middle" x="369" y="-99.8" font-family="Times,serif" font-size="14.00" fill="#000000">RenterComponent</text>
</g>
<!-- RenterComponent&#45;&gt;AppModule -->
<g id="edge5" class="edge">
<title>RenterComponent&#45;&gt;AppModule</title>
<path fill="none" stroke="#000000" d="M369,-122.027C369,-138.3976 369,-160 369,-160 369,-160 460.9621,-160 460.9621,-160"/>
<polygon fill="#000000" stroke="#000000" points="460.9622,-163.5001 470.9621,-160 460.9621,-156.5001 460.9622,-163.5001"/>
</g>
<!-- AppComponent  -->
<g id="node9" class="node">
<title>AppComponent </title>
<polygon fill="#80b1d3" stroke="#000000" points="567.439,-252 458.561,-252 458.561,-216 567.439,-216 567.439,-252"/>
<text text-anchor="middle" x="513" y="-229.8" font-family="Times,serif" font-size="14.00" fill="#000000">AppComponent </text>
</g>
<!-- AppModule&#45;&gt;AppComponent  -->
<g id="edge8" class="edge">
<title>AppModule&#45;&gt;AppComponent </title>
<path fill="none" stroke="#000000" stroke-dasharray="1,5" d="M513,-187.1061C513,-187.1061 513,-205.991 513,-205.991"/>
<polygon fill="#000000" stroke="#000000" points="509.5001,-205.9909 513,-215.991 516.5001,-205.991 509.5001,-205.9909"/>
</g>
<!-- GoogleMapsModule -->
<g id="node7" class="node">
<title>GoogleMapsModule</title>
<polygon fill="#8dd3c7" stroke="#000000" points="285.8655,-122 282.8655,-126 261.8655,-126 258.8655,-122 154.1345,-122 154.1345,-86 285.8655,-86 285.8655,-122"/>
<text text-anchor="middle" x="220" y="-99.8" font-family="Times,serif" font-size="14.00" fill="#000000">GoogleMapsModule</text>
</g>
<!-- GoogleMapsModule&#45;&gt;AppModule -->
<g id="edge6" class="edge">
<title>GoogleMapsModule&#45;&gt;AppModule</title>
<path fill="none" stroke="#000000" d="M220,-122.1061C220,-141.3391 220,-169 220,-169 220,-169 461.3314,-169 461.3314,-169"/>
<polygon fill="#000000" stroke="#000000" points="461.3314,-172.5001 471.3314,-169 461.3314,-165.5001 461.3314,-172.5001"/>
</g>
<!-- UiSharedModule -->
<g id="node8" class="node">
<title>UiSharedModule</title>
<polygon fill="#8dd3c7" stroke="#000000" points="136.4202,-122 133.4202,-126 112.4202,-126 109.4202,-122 23.5798,-122 23.5798,-86 136.4202,-86 136.4202,-122"/>
<text text-anchor="middle" x="80" y="-99.8" font-family="Times,serif" font-size="14.00" fill="#000000">UiSharedModule</text>
</g>
<!-- UiSharedModule&#45;&gt;AppModule -->
<g id="edge7" class="edge">
<title>UiSharedModule&#45;&gt;AppModule</title>
<path fill="none" stroke="#000000" d="M80,-122.2921C80,-144.2057 80,-178 80,-178 80,-178 461.0887,-178 461.0887,-178"/>
<polygon fill="#000000" stroke="#000000" points="461.0887,-181.5001 471.0887,-178 461.0887,-174.5001 461.0887,-181.5001"/>
</g>
</g>
</svg>
